<svg id="Layer_1" data-name="Layer 1" xmlns="http://www.w3.org/2000/svg" viewBox="0 0 465.63 154.22"><defs><style>.cls-1{fill:#fff;}</style></defs><path class="cls-1" d="M431.6,50.89a57.8,57.8,0,0,0-25.33,5.78,56.41,56.41,0,0,0-22,18.9,58.36,58.36,0,0,0,0,65.07h0c-1.11.1-2.24.16-3.38.16a32.16,32.16,0,0,1-21.59-7.9,57.76,57.76,0,0,0,5.49-24.8,57.21,57.21,0,1,0-57.21,57.22,57.31,57.31,0,0,0,36.66-13,58.16,58.16,0,0,0,62,7.27,57.8,57.8,0,0,0,25.33,5.78,57.22,57.22,0,1,0,0-114.43Zm-124,89.91c-17.92,0-32.07-13.05-32.07-32.7s14.15-32.69,32.07-32.69,32.06,13,32.06,32.69S325.53,140.8,307.62,140.8ZM413,108.1c0,.94,0,1.86-.1,2.76l0,.46c-.07.87-.17,1.73-.3,2.57,0,.14-.05.27-.07.41a34.62,34.62,0,0,1-1.24,5.13l-.06.18c-.28.83-.58,1.63-.91,2.42l-.07.14a30.81,30.81,0,0,1-3.94,6.71,33.35,33.35,0,0,1-6.73-20.78,33.39,33.39,0,0,1,6.73-20.78A33.45,33.45,0,0,1,413,108.1Zm18.61,32.7c-1.14,0-2.27-.06-3.38-.16.23-.32.44-.66.65-1s.46-.7.68-1.05.43-.71.64-1.06l.63-1.09.58-1c.32-.61.64-1.23.94-1.85.17-.35.33-.71.5-1.06s.41-.89.6-1.35.29-.68.43-1,.37-.91.54-1.37.25-.65.36-1c.27-.75.53-1.5.76-2.26.07-.22.13-.44.2-.66.17-.6.34-1.2.5-1.81l.24-.93c.13-.56.26-1.13.38-1.7.06-.28.13-.57.18-.85.17-.84.32-1.68.45-2.53,0-.1,0-.2,0-.3.11-.77.21-1.55.29-2.33,0-.28.05-.56.08-.84.05-.64.1-1.29.14-1.94,0-.27,0-.54.05-.81,0-.9.06-1.8.06-2.71h0a57.25,57.25,0,0,0-9.92-32.53c1.11-.1,2.24-.16,3.38-.16,17.92,0,32.07,13,32.07,32.69S449.52,140.8,431.6,140.8Z" transform="translate(-23.18 -50.89)"/><path class="cls-1" d="M361.74,182.88a31.51,31.51,0,0,0-22.23-9.21H276.64a31.43,31.43,0,0,0-31.43,31.44H371a31.51,31.51,0,0,0-9.21-22.23Z" transform="translate(-23.18 -50.89)"/><polygon class="cls-1" points="189.02 88.02 176.44 88.02 176.44 2.2 151.29 2.2 151.29 88.02 138.71 88.02 138.71 2.2 113.56 2.2 113.56 88.02 81.72 88.02 81.72 44.33 56.58 44.33 56.58 88.02 25.15 88.02 25.15 44.33 0 44.33 0 112.22 9.42 112.22 25.15 112.22 56.58 112.22 57.17 112.22 81.72 112.22 113.56 112.22 115.4 112.22 138.71 112.22 151.29 112.22 176.44 112.22 189.02 112.22 189.19 112.22 214.16 112.22 214.16 2.2 189.02 2.2 189.02 88.02"/><polygon class="cls-1" points="53.44 24.84 81.72 24.84 81.72 0.63 0 0.63 0 24.84 28.29 24.84 53.44 24.84"/></svg>