<svg id="Layer_2" data-name="Layer 2" xmlns="http://www.w3.org/2000/svg" viewBox="0 0 444.54 177.82"><defs><style>.cls-1{fill:#fff;}</style></defs><polygon class="cls-1" points="68.86 2.54 68.86 51.11 29 51.11 29 2.54 0 2.54 0 129.4 29 129.4 29 79.02 68.86 79.02 68.86 129.4 97.86 129.4 97.86 2.54 68.86 2.54"/><path class="cls-1" d="M213.87,142.76c-20.66,0-37-15-37-37.7s16.32-37.7,37-37.7,37,15,37,37.7S234.52,142.76,213.87,142.76Zm0,28.27c36.42,0,66-28.64,66-66s-29.54-66-66-66-66,28.64-66,66S177.44,171,213.87,171Z" transform="translate(-33.73 -39.09)"/><path class="cls-1" d="M336,171c27.54,0,47.12-14.5,47.12-39,0-26.82-21.57-33.52-40.78-39.32-19.75-6-22.83-10-22.83-15.77,0-5.08,4.53-9.61,13.59-9.61C344.71,67.36,350.69,73,355,82l24.47-14.31c-9.25-18.67-25.56-28.64-46.4-28.64-21.92,0-42.59,14.14-42.59,38.6C290.52,102,309,111,327.86,116.3c19,5.25,26.27,8.33,26.27,16.13,0,4.89-3.44,10.33-17.21,10.33-14.32,0-22.11-7.07-26.65-17.59l-25,14.5C292.34,158.34,309.37,171,336,171Z" transform="translate(-33.73 -39.09)"/><polygon class="cls-1" points="444.54 2.54 350.31 2.54 350.31 30.45 382.93 30.45 382.93 129.4 411.93 129.4 411.93 30.45 444.54 30.45 444.54 2.54"/><path class="cls-1" d="M140.65,216.91a36.24,36.24,0,0,1,36.24-36.25h72.5a36.25,36.25,0,0,1,36.24,36.25Z" transform="translate(-33.73 -39.09)"/></svg>